<svg xmlns="http://www.w3.org/2000/svg" xmlns:xlink="http://www.w3.org/1999/xlink" id="Layer_1" width="2000" height="2000" x="0" style="enable-background:new 0 0 2000 2000" y="0" version="1.1" viewBox="0 0 2000 2000" xml:space="preserve"><style type="text/css">.st0{fill:#ffc31a}.st1{fill:#ffd538}.st2{fill:#fccd35}</style><g id="layer102"><path d="M1091.9,1014c-107.7,6.1-233,1.2-350.5-12.6c-363-42.9-626.2-166.1-695.1-325.3c-5.9-13.4-9.8-19-11.4-15 C32.5,668.4,11.4,845,4.7,914.3c-6.3,65.6-6.3,213.5,0,261.3c18,138.1,61.1,232.9,144.5,317.6c141.8,144.2,390.8,230.9,727.3,253.2 c105.7,6.9,361.9,3.2,400.6-5.7l8.6-2v-413.2c14.2-109.3,28.4-218.7,42.6-328C1292.4,1001.2,1166.4,1010.1,1091.9,1014z" class="st0"/><path d="M1995.4,811.8c-4.7-43.8-15.7-114.6-18-117.1c-0.4-0.8-189.9-0.8-421-0.4l-419.8,1.2l102.2,149.9 c56.4,82.2,101,150.3,99.1,150.7c-14.6,109.8-29.1,219.6-43.7,329.4h332.3c269.4,0,341.5-1.2,342.7-4.9 c3.5-10.5,17.2-120.7,23.9-189.6C2001.2,1046,2002.4,878.6,1995.4,811.8z M1550.1,1224.6c-8.6,4.1-22.7,7.7-31.3,7.7 c-76,0-104.6-105.3-39.6-146.2c26.2-16.6,60.3-13.8,86.6,6.9c13.3,10.5,29.4,42.5,29.4,59.1 C1595.1,1182.5,1576.7,1212.5,1550.1,1224.6z M1745.1,996.9c-11.7,6.1-23.9,8.5-41.5,8.5c-92,0-134.7-115.1-66.2-179.1 c47-43.8,124.1-28.4,154.7,31.2c6.7,12.6,8.6,23.5,8.6,46.6C1800.7,949.1,1783.9,976.7,1745.1,996.9z M1856.7,1187.8 c-24.7,15.4-59.9,7.7-71.7-16.2c-7.4-15.4-7.4-44.2,0.4-55.9c19.2-28.4,65.8-27.5,85.4,1.6 C1886.1,1139.9,1879.4,1173.2,1856.7,1187.8z" class="st1"/><path d="M862.8,949.9C491.9,928.1,177,806.5,106.5,658.7c-11-23.1-12.9-31.6-12.9-56.3s2-33.2,12.9-56.3 c61.9-129.6,303.9-239,621.1-279.5c138.2-17.8,334.1-21.9,450.4-8.9c270.2,29.6,509.1,104.5,656,206.2 c43.9,30.4,97.9,87.9,112.8,120.3c6.7,14.6,12.9,30.4,14.5,35.2l2.3,9.3l-472.3,0.8l-472.3,1.2l106.5,155.2 c58.4,85.5,105.3,156,104.6,156.4C1222.3,949.1,946.6,954.8,862.8,949.9z M995.9,853.1c30.2-12.6,29-32-2.7-44.6 c-40.7-16.2-110.8-3.6-110.8,19.9c0,11.3,10.2,22.3,25.8,27.1C928.2,861.6,978.7,860,995.9,853.1z M511.5,754.3 c12.5-4.9,29-15,36.4-22.7c18.4-19.4,18-34-1.6-54.3c-40.7-42.5-159.8-43.8-202.5-2.4c-32.5,32-3.5,73.3,61.5,87.5 C432.4,768.5,485.6,764.4,511.5,754.3z M1073.1,512.4c20-9.7,20.4-23.9,1.2-35.2c-19.6-12.2-86.2-14.2-105.3-3.6 c-19.2,10.5-23.5,19-14.1,29.6C972.8,523.4,1040.6,529,1073.1,512.4z M1395.4,512.4c28.6-9.7,47-28,47-47.4 c0-18.2-11.7-31.6-38.4-44.2c-25.8-11.7-85-14.6-116.7-4.9c-27.8,8.1-52.5,31.2-52.5,48.6c0,15.4,24.7,38.9,49.3,47.4 C1310.4,521.3,1368.8,521.3,1395.4,512.4z M725.7,452.1c22.3-6.9,47-28.8,47-42.1c0-5.3-5.9-15-13.7-22.7 c-36.8-35.7-137.5-38.9-181.7-5.3c-13.3,9.7-16.1,14.2-16.1,25.5c0,23.9,32.1,45,80.3,52.7C659.9,463,704.5,458.5,725.7,452.1z" class="st2"/></g></svg>